<svg width="142" height="65" viewBox="0 0 142 65" fill="none" xmlns="http://www.w3.org/2000/svg">
<path d="M21.9753 35H16.5679L7.52398 21.3077V35H2.11662V12.8013H7.52398L16.5679 26.5569V12.8013H21.9753V35ZM24.8197 26.1458C24.8197 24.3328 25.1571 22.7412 25.8317 21.3709C26.5273 20.0006 27.4655 18.9466 28.646 18.2087C29.8266 17.4709 31.1442 17.1019 32.5988 17.1019C33.8426 17.1019 34.9283 17.3549 35.8558 17.8609C36.8045 18.3668 37.5318 19.0309 38.0378 19.853V17.3549H43.4451V35H38.0378V32.5019C37.5107 33.324 36.7729 33.9881 35.8242 34.494C34.8966 35 33.8109 35.253 32.5671 35.253C31.1336 35.253 29.8266 34.8841 28.646 34.1462C27.4655 33.3873 26.5273 32.3227 25.8317 30.9524C25.1571 29.561 24.8197 27.9588 24.8197 26.1458ZM38.0378 26.1775C38.0378 24.8282 37.6583 23.7636 36.8994 22.9836C36.1615 22.2036 35.255 21.8136 34.1799 21.8136C33.1047 21.8136 32.1877 22.2036 31.4288 22.9836C30.6909 23.7426 30.322 24.7966 30.322 26.1458C30.322 27.495 30.6909 28.5702 31.4288 29.3713C32.1877 30.1513 33.1047 30.5413 34.1799 30.5413C35.255 30.5413 36.1615 30.1513 36.8994 29.3713C37.6583 28.5913 38.0378 27.5267 38.0378 26.1775ZM57.1916 30.4148V35H54.4404C52.4799 35 50.9515 34.5257 49.8553 33.577C48.759 32.6073 48.2109 31.0367 48.2109 28.8653V21.8452H46.0606V17.3549H48.2109V13.0543H53.6183V17.3549H57.1599V21.8452H53.6183V28.9286C53.6183 29.4556 53.7448 29.8351 53.9977 30.067C54.2507 30.2989 54.6723 30.4148 55.2626 30.4148H57.1916ZM68.2356 35.253C66.5069 35.253 64.9469 34.8841 63.5555 34.1462C62.1852 33.4084 61.0995 32.3543 60.2984 30.984C59.5184 29.6137 59.1284 28.0115 59.1284 26.1775C59.1284 24.3645 59.529 22.7728 60.33 21.4025C61.1311 20.0112 62.2274 18.9466 63.6187 18.2087C65.0101 17.4709 66.5701 17.1019 68.2988 17.1019C70.0275 17.1019 71.5875 17.4709 72.9789 18.2087C74.3702 18.9466 75.4665 20.0112 76.2675 21.4025C77.0686 22.7728 77.4692 24.3645 77.4692 26.1775C77.4692 27.9905 77.0581 29.5926 76.2359 30.984C75.4348 32.3543 74.3281 33.4084 72.9156 34.1462C71.5242 34.8841 69.9642 35.253 68.2356 35.253ZM68.2356 30.5729C69.2685 30.5729 70.1434 30.1935 70.8602 29.4345C71.598 28.6756 71.967 27.5899 71.967 26.1775C71.967 24.765 71.6086 23.6793 70.8918 22.9204C70.1961 22.1615 69.3318 21.782 68.2988 21.782C67.2447 21.782 66.3699 22.1615 65.6742 22.9204C64.9785 23.6582 64.6306 24.7439 64.6306 26.1775C64.6306 27.5899 64.9679 28.6756 65.6425 29.4345C66.3382 30.1935 67.2026 30.5729 68.2356 30.5729ZM97.7616 17.3549V35H92.3543V32.5967C91.8061 33.3767 91.0578 34.0092 90.1091 34.494C89.1815 34.9578 88.1485 35.1897 87.0101 35.1897C85.6609 35.1897 84.4698 34.8946 83.4369 34.3043C82.4039 33.693 81.6028 32.8181 81.0336 31.6797C80.4644 30.5413 80.1798 29.2026 80.1798 27.6637V17.3549H85.5555V26.9364C85.5555 28.1169 85.8612 29.034 86.4726 29.6875C87.0839 30.341 87.9061 30.6678 88.9391 30.6678C89.9932 30.6678 90.8259 30.341 91.4372 29.6875C92.0486 29.034 92.3543 28.1169 92.3543 26.9364V17.3549H97.7616ZM107.053 20.2958C107.686 19.326 108.476 18.5671 109.425 18.019C110.373 17.4498 111.427 17.1652 112.587 17.1652V22.8888H111.101C109.751 22.8888 108.74 23.1839 108.065 23.7742C107.39 24.3434 107.053 25.3553 107.053 26.8099V35H101.646V17.3549H107.053V20.2958ZM122.35 35.253C120.811 35.253 119.441 34.9895 118.239 34.4624C117.037 33.9354 116.089 33.2186 115.393 32.3121C114.697 31.3845 114.307 30.3516 114.223 29.2132H119.567C119.63 29.8245 119.915 30.3199 120.421 30.6994C120.927 31.0789 121.549 31.2686 122.286 31.2686C122.961 31.2686 123.478 31.1421 123.836 30.8891C124.215 30.6151 124.405 30.2672 124.405 29.8456C124.405 29.3397 124.142 28.9707 123.615 28.7388C123.088 28.4859 122.234 28.2118 121.053 27.9167C119.788 27.6215 118.734 27.3158 117.891 26.9996C117.048 26.6623 116.32 26.1458 115.709 25.4501C115.098 24.7334 114.792 23.7742 114.792 22.5725C114.792 21.5606 115.066 20.6436 115.614 19.8214C116.183 18.9782 117.006 18.3141 118.081 17.8292C119.177 17.3444 120.473 17.1019 121.97 17.1019C124.184 17.1019 125.923 17.65 127.188 18.7463C128.474 19.8425 129.212 21.2971 129.401 23.1101H124.405C124.321 22.4988 124.047 22.0139 123.583 21.6555C123.14 21.2971 122.55 21.1179 121.812 21.1179C121.18 21.1179 120.695 21.2444 120.358 21.4974C120.02 21.7293 119.852 22.0561 119.852 22.4777C119.852 22.9836 120.115 23.3631 120.642 23.6161C121.19 23.869 122.034 24.122 123.172 24.375C124.479 24.7123 125.544 25.0496 126.366 25.3869C127.188 25.7031 127.905 26.2302 128.516 26.968C129.148 27.6848 129.475 28.6545 129.496 29.8772C129.496 30.9102 129.201 31.8378 128.611 32.66C128.042 33.4611 127.209 34.0935 126.113 34.5573C125.038 35.0211 123.783 35.253 122.35 35.253Z" fill="white"/>
<g clip-path="url(#clip0_124_4)">
<path d="M42.9998 41.123C48.5769 49.1055 72.8412 57.0512 89.1619 56.5525C106.803 56.0535 116.463 52.5629 135.271 39.7275C135.216 41.1328 135.051 42.2765 135.077 43.3197C135.058 44.5099 135.05 45.7683 135.301 46.9154C135.356 47.256 136.063 47.7721 136.481 47.7756C136.898 47.779 137.5 47.1945 137.581 46.8324C138.282 43.3691 138.847 39.9274 139.469 36.4067C139.634 35.263 139.098 34.5103 137.891 34.3529C133.313 33.9632 128.723 33.5055 124.087 33.1947C123.038 33.1519 121.861 33.6183 120.506 33.8337C122.055 36.5902 124.441 35.8619 126.323 36.331C128.283 36.8576 130.324 37.022 132.826 37.4623C127.807 42.1707 122.492 45.4595 116.698 47.9166C95.4894 57.0134 74.4195 55.6132 53.6745 46.2004C50.9747 44.9535 48.4349 43.4018 45.792 42.0759C44.9923 41.8539 44.2603 41.621 42.9998 41.123Z" fill="#DF6951"/>
</g>
<defs>
<clipPath id="clip0_124_4">
<rect width="96.1304" height="23.346" fill="white" transform="matrix(0.987606 -0.156951 -0.156951 -0.987606 46.6641 64.1797)"/>
</clipPath>
</defs>
</svg>
